<svg width="129" height="129" viewBox="0 0 129 129" fill="none" xmlns="http://www.w3.org/2000/svg">
<mask id="mask0_226_622" style="mask-type:luminance" maskUnits="userSpaceOnUse" x="0" y="0" width="129" height="129">
<path d="M0.0939478 0.0939478H128.176V128.176H0.0939478V0.0939478Z" fill="white" stroke="#6F91FF" stroke-width="0.187896"/>
</mask>
<g mask="url(#mask0_226_622)">
<mask id="mask1_226_622" style="mask-type:luminance" maskUnits="userSpaceOnUse" x="-1" y="-1" width="130" height="130">
<path d="M128.141 128.145V0.125168H0.121357V128.145H128.141Z" fill="white" stroke="white" stroke-width="0.250527"/>
</mask>
<g mask="url(#mask1_226_622)">
<path d="M45.3418 124.538H82.9209V86.959H45.3418V124.538Z" stroke="#6F91FF" stroke-width="7.51582" stroke-miterlimit="10"/>
<path d="M64.1319 86.9589L80.4162 52.5848C80.4162 25.604 73.1254 3.73192 64.1319 3.73192C55.1385 3.73192 47.8477 25.604 47.8477 52.5848L64.1319 86.9589Z" stroke="#6F91FF" stroke-width="7.51582" stroke-miterlimit="10"/>
<path d="M15.2793 52.5848C24.2802 43.5839 38.8469 43.5839 47.8478 52.5848C56.8488 43.5839 71.4155 43.5839 80.4164 52.5848C89.4173 43.5839 103.984 43.5839 112.985 52.5848" stroke="#6F91FF" stroke-width="7.51582" stroke-miterlimit="10"/>
<path d="M64.1321 86.959L112.985 52.5849C112.985 25.6041 91.1129 3.73204 64.1321 3.73204C37.1516 3.73204 15.2793 25.6041 15.2793 52.5849L64.1321 86.959Z" stroke="#6F91FF" stroke-width="7.51582" stroke-miterlimit="10"/>
</g>
</g>
<path fill-rule="evenodd" clip-rule="evenodd" d="M54.1227 97.704C53.1635 98.2887 52.7287 99.1306 52.8105 100.244C52.8732 101.099 53.3529 101.957 57.9412 109.425C61.0183 114.433 63.1628 117.738 63.4114 117.854C64.4046 118.319 64.4876 118.213 69.9644 109.498C74.7052 101.954 75.1982 101.094 75.2672 100.241C75.3284 99.4845 75.257 99.1742 74.8998 98.6444C73.9953 97.3024 74.2225 97.3297 63.942 97.33C55.0861 97.3304 54.7118 97.3447 54.1227 97.704ZM55.4855 100.082C55.3151 100.252 55.2133 100.535 55.2593 100.711C55.3225 100.953 62.3103 111.948 62.653 112.345C62.6902 112.388 62.7207 109.577 62.7207 106.098V99.7717H59.2579C56.2914 99.7717 55.751 99.8161 55.4855 100.082ZM65.3512 106.098C65.3512 109.577 65.3801 112.388 65.4156 112.345C65.8123 111.863 72.7483 100.957 72.811 100.717C72.8578 100.538 72.7567 100.252 72.5863 100.082C72.3208 99.8161 71.7804 99.7717 68.8139 99.7717H65.3512V106.098Z" fill="#6F91FF"/>
</svg>
