<svg width="148" height="147" viewBox="0 0 148 147" fill="none" xmlns="http://www.w3.org/2000/svg">
<path d="M39.6426 117.824C38.4054 117.917 37.3051 118.638 36.7355 119.73C36.2831 120.61 35.3722 121.166 34.3754 121.17H34.3384C33.3464 121.163 32.4422 120.606 31.9968 119.728C31.4239 118.631 30.3149 117.909 29.0711 117.824C28.2828 117.895 27.5569 118.279 27.059 118.889C26.5611 119.498 26.3336 120.282 26.4283 121.06C26.4283 123.474 28.6747 125.511 33.342 129.538L34.3569 130.416L35.3717 129.538C40.0391 125.517 42.2855 123.474 42.2855 121.06C42.3802 120.282 42.1527 119.498 41.6548 118.889C41.1568 118.279 40.431 117.895 39.6426 117.824Z" fill="#6F91FF"/>
<path d="M71.3586 57.603C66.7104 57.8673 62.5701 60.6018 60.5361 64.751C60.1012 65.6634 59.1759 66.247 58.1575 66.2513H58.1443C57.1259 66.247 56.2005 65.6634 55.7657 64.751C53.7303 60.5971 49.5834 57.8615 44.9299 57.603C38.9041 57.603 34.3584 62.9496 34.3584 70.0374C34.3584 78.416 41.3911 84.6502 53.0462 94.9742C54.6636 96.4056 56.3542 97.912 58.1178 99.4934C59.9309 97.9093 61.6249 96.4064 63.2424 94.9742C74.8975 84.6502 81.9301 78.4186 81.9301 70.0374C81.9301 62.9496 77.3844 57.603 71.3586 57.603Z" fill="#6F91FF"/>
<path d="M84.572 10.4733V7.85494C84.572 3.51678 81.0222 0 76.6434 0H7.92862C3.54977 0 0 3.51678 0 7.85494V117.824C0 122.162 3.54977 125.679 7.92862 125.679H10.5715V23.5648C10.5802 16.3381 16.4914 10.4819 23.7859 10.4733H84.572Z" fill="#6F91FF"/>
<path d="M80.9153 37.8974L81.9301 38.7746L82.945 37.8974C87.6123 33.8757 89.8588 31.8334 89.8588 29.4193C89.9534 28.6407 89.7259 27.8573 89.228 27.2476C88.7301 26.6379 88.0042 26.2539 87.2159 26.1831C85.9786 26.2758 84.8783 26.9972 84.3087 28.0892C83.8434 28.9746 82.9192 29.5298 81.9116 29.5293C80.9197 29.5219 80.0154 28.9648 79.57 28.0866C78.9971 26.9896 77.8882 26.2681 76.6444 26.1831C75.856 26.2539 75.1302 26.6379 74.6323 27.2476C74.1344 27.8573 73.9068 28.6407 74.0015 29.4193C74.0015 31.8334 76.2479 33.8757 80.9153 37.8974Z" fill="#6F91FF"/>
<path d="M116.286 83.786C98.7704 83.786 84.5713 97.8531 84.5713 115.206C84.5713 132.558 98.7704 146.626 116.286 146.626C133.801 146.626 148 132.558 148 115.206C147.981 97.8609 133.793 83.8048 116.286 83.786ZM116.286 141.389C101.69 141.389 89.857 129.666 89.857 115.206C89.857 100.745 101.69 89.0226 116.286 89.0226C130.882 89.0226 142.715 100.745 142.715 115.206C142.699 129.66 130.875 141.373 116.286 141.389Z" fill="#6F91FF"/>
<path d="M100.429 82.1366V23.5649C100.429 19.2267 96.8796 15.71 92.5008 15.71H23.786C19.4072 15.71 15.8574 19.2267 15.8574 23.5649V133.534C15.8574 137.872 19.4072 141.389 23.786 141.389H90.442C81.7775 133.029 77.7978 120.993 79.7899 109.174C81.782 97.3556 89.4932 87.254 100.429 82.1366ZM76.6435 20.9466C78.5776 20.9448 80.45 21.6209 81.9293 22.8553C84.3812 20.7765 87.8521 20.3565 90.737 21.7895C93.6218 23.2225 95.3584 26.2293 95.1437 29.4195C95.1437 34.3262 91.4806 37.4812 86.4222 41.846L84.4136 43.5898C83.0005 44.8234 80.8819 44.8234 79.4688 43.5898L77.4628 41.8486C72.3779 37.4812 68.7149 34.3262 68.7149 29.4195C68.6111 27.2488 69.3929 25.1279 70.8841 23.5343C72.3754 21.9407 74.4509 21.0081 76.6435 20.9466ZM38.8504 133.487L36.8418 135.231C35.4287 136.464 33.3101 136.464 31.897 135.231L29.8911 133.49C24.8062 129.122 21.1432 125.967 21.1432 121.06C20.9284 117.87 22.665 114.864 25.5499 113.43C28.4348 111.997 31.9057 112.417 34.3575 114.496C36.8094 112.417 40.2803 111.997 43.1652 113.43C46.0501 114.864 47.7867 117.87 47.5719 121.06C47.5719 125.967 43.9089 129.122 38.8504 133.487ZM66.7671 98.8781C65.1567 100.302 63.475 101.799 61.7219 103.368C59.6842 105.171 56.6052 105.171 54.5676 103.368C52.8057 101.797 51.1231 100.3 49.5197 98.8755C37.2066 87.9754 29.0718 80.762 29.0718 70.0374C29.0718 59.9595 35.8878 52.3664 44.929 52.3664C50.1113 52.4163 54.9832 54.8219 58.1434 58.8912C61.3036 54.8219 66.1755 52.4163 71.3578 52.3664C80.3991 52.3664 87.215 59.9595 87.215 70.0374C87.215 80.762 79.0803 87.9754 66.7671 98.8781Z" fill="#6F91FF"/>
<path fill-rule="evenodd" clip-rule="evenodd" d="M115.945 135.89C127.513 135.89 136.89 126.513 136.89 114.945C136.89 103.377 127.513 94 115.945 94C104.377 94 95 103.377 95 114.945C95 126.513 104.377 135.89 115.945 135.89ZM103.011 108.243C102.92 107.003 103.403 106.067 104.471 105.416C105.126 105.016 105.543 105 115.396 105C124.663 105 126.256 104.98 127.062 105.766C127.251 105.951 127.396 106.179 127.587 106.462C127.984 107.052 128.063 107.397 127.996 108.239C127.919 109.187 127.37 110.145 122.096 118.538C116.003 128.234 115.91 128.352 114.805 127.835C114.528 127.705 112.143 124.029 108.719 118.457C103.614 110.148 103.081 109.193 103.011 108.243ZM105.735 108.762C105.685 108.566 105.798 108.251 105.987 108.061C106.282 107.766 106.884 107.717 110.185 107.717H114.037V114.755C114.037 118.625 114.003 121.753 113.961 121.706C113.58 121.264 105.806 109.031 105.735 108.762ZM117.035 121.706C116.995 121.753 116.963 118.625 116.963 114.755V107.717H120.815C124.116 107.717 124.718 107.766 125.013 108.061C125.202 108.251 125.315 108.569 125.263 108.768C125.193 109.036 117.477 121.169 117.035 121.706Z" fill="#6F91FF"/>
</svg>
