<svg width="147" height="147" viewBox="0 0 147 147" fill="none" xmlns="http://www.w3.org/2000/svg">
<path d="M105.425 14.2043C127.128 25.9955 140.608 48.6614 140.608 73.3128C140.608 74.9929 141.983 76.3675 143.664 76.3675C145.345 76.3675 146.721 74.9929 146.721 73.3128C146.721 46.4009 132.018 21.7189 108.329 8.85862C106.831 8.0644 104.997 8.61425 104.172 10.0805C103.377 11.5468 103.927 13.4101 105.425 14.2043Z" fill="#6F91FF"/>
<path d="M3.0567 76.3674C4.73788 76.3674 6.11339 74.9928 6.11339 73.3127C6.11339 48.6613 19.5934 25.9954 41.296 14.2043C42.7938 13.41 43.344 11.5467 42.5187 10.0499C41.7239 8.58361 39.8593 8.03376 38.3615 8.82799C14.7027 21.7188 0 46.4008 0 73.3127C0 74.9928 1.37551 76.3674 3.0567 76.3674Z" fill="#6F91FF"/>
<path d="M100.871 51.9298V54.9845C100.871 56.6645 99.4956 58.0392 97.8144 58.0392H48.9073C47.2261 58.0392 45.8506 56.6645 45.8506 54.9845V51.9298C45.8506 42.7046 50.4662 34.518 57.466 29.5388C61.3786 33.907 67.0641 36.6563 73.3609 36.6563C79.6577 36.6563 85.3431 33.907 89.2557 29.5388C96.2555 34.518 100.871 42.7046 100.871 51.9298Z" fill="#6F91FF"/>
<path d="M73.3597 30.547C81.8005 30.547 88.6431 23.7088 88.6431 15.2735C88.6431 6.83818 81.8005 0 73.3597 0C64.9188 0 58.0762 6.83818 58.0762 15.2735C58.0762 23.7088 64.9188 30.547 73.3597 30.547Z" fill="#6F91FF"/>
<path d="M146.722 140.516V143.571C146.722 145.251 145.346 146.626 143.665 146.626H94.7579C93.0767 146.626 91.7012 145.251 91.7012 143.571V140.516C91.7012 131.291 96.3168 123.104 103.317 118.125C107.229 122.493 112.915 125.243 119.211 125.243C125.508 125.243 131.194 122.493 135.106 118.125C142.106 123.104 146.722 131.291 146.722 140.516Z" fill="#6F91FF"/>
<path d="M119.211 119.133C127.652 119.133 134.495 112.295 134.495 103.86C134.495 95.4244 127.652 88.5862 119.211 88.5862C110.77 88.5862 103.928 95.4244 103.928 103.86C103.928 112.295 110.77 119.133 119.211 119.133Z" fill="#6F91FF"/>
<path d="M55.0205 140.516V143.571C55.0205 145.251 53.645 146.626 51.9638 146.626H3.0567C1.37551 146.626 0 145.251 0 143.571V140.516C0 131.291 4.61561 123.104 11.6154 118.125C15.528 122.493 21.2135 125.243 27.5103 125.243C33.8071 125.243 39.4925 122.493 43.4051 118.125C50.4049 123.104 55.0205 131.291 55.0205 140.516Z" fill="#6F91FF"/>
<path d="M27.51 119.133C35.9509 119.133 42.7935 112.295 42.7935 103.86C42.7935 95.4244 35.9509 88.5862 27.51 88.5862C19.0692 88.5862 12.2266 95.4244 12.2266 103.86C12.2266 112.295 19.0692 119.133 27.51 119.133Z" fill="#6F91FF"/>
<path fill-rule="evenodd" clip-rule="evenodd" d="M50.9403 66.8318C48.8068 68.1324 47.8398 70.0051 48.0216 72.4825C48.1612 74.3832 49.2281 76.2918 59.4332 92.9014C66.2774 104.041 71.047 111.391 71.6 111.65C73.8091 112.683 73.9938 112.447 86.1752 93.064C96.7196 76.2851 97.8162 74.371 97.9696 72.4758C98.1058 70.792 97.947 70.102 97.1526 68.9235C95.1407 65.9388 95.646 65.9994 72.7801 66.0002C53.0829 66.001 52.2505 66.0328 50.9403 66.8318ZM53.9714 72.1202C53.5924 72.4992 53.3659 73.1294 53.4683 73.5202C53.6087 74.058 69.151 98.5132 69.9132 99.3967C69.996 99.4924 70.0637 93.2391 70.0637 85.501V71.431H62.3619C55.7639 71.431 54.5619 71.5296 53.9714 72.1202ZM75.9145 85.501C75.9145 93.2391 75.9789 99.4924 76.0579 99.3967C76.9401 98.3243 92.367 74.0681 92.5066 73.5331C92.6107 73.1353 92.3858 72.4992 92.0068 72.1202C91.4163 71.5296 90.2143 71.431 83.6163 71.431H75.9145V85.501Z" fill="#6F91FF"/>
</svg>
