<svg width="134" height="147" viewBox="0 0 134 147" fill="none" xmlns="http://www.w3.org/2000/svg">
<path d="M133.611 42.7658V24.4376C133.611 7.64898 101.867 0 72.3727 0C42.878 0 11.1343 7.64898 11.1343 24.4376V42.7658C11.1343 45.8023 11.947 48.6001 13.3054 51.2029C4.51487 55.3572 0 60.7092 0 67.2034V85.5316C0 92.8202 4.28109 98.8562 11.1343 103.603V116.079C11.1343 135.922 42.6831 146.626 72.3727 146.626C102.062 146.626 133.611 135.922 133.611 116.079V97.7504C133.611 91.8549 129.859 86.8513 122.477 82.8313V67.2034C122.477 65.6456 122.171 63.7272 121.208 61.6682C128.796 56.8052 133.611 50.4882 133.611 42.7658ZM111.343 85.1038L111.242 85.9898C110.524 92.5147 95.5709 101.3 71.9217 103.396C71.6211 103.42 71.3038 103.432 71.0032 103.457C69.6057 103.573 68.1973 103.677 66.7387 103.738C64.946 103.817 63.1146 103.86 61.2384 103.86C45.1383 103.86 29.7118 100.598 19.9582 95.136L18.2881 94.2014C13.6729 91.311 11.1343 88.2074 11.1343 85.5316V82.0613C11.2011 82.098 11.29 82.1284 11.3569 82.1714C12.7152 82.9047 14.1627 83.5949 15.7049 84.2363C16.0835 84.4013 16.5011 84.5418 16.8906 84.6945C18.0986 85.1709 19.3458 85.6291 20.643 86.0569C21.222 86.2463 21.8176 86.4235 22.4134 86.6067C23.6383 86.9733 24.8909 87.3214 26.1712 87.6514C26.7725 87.8041 27.3681 87.9628 27.9805 88.1036C29.5672 88.4762 31.1928 88.8184 32.8518 89.1301C33.169 89.1912 33.4642 89.2584 33.7814 89.3195C35.7634 89.6739 37.7899 89.9853 39.8441 90.2541C40.4454 90.3335 41.0521 90.4009 41.6534 90.474C43.1567 90.6512 44.6596 90.8161 46.1852 90.9504C46.9088 91.0175 47.6327 91.0787 48.362 91.1335C49.8595 91.2436 51.357 91.3412 52.8603 91.4146C53.5227 91.445 54.1798 91.4817 54.8422 91.5124C56.9799 91.5918 59.1122 91.6407 61.2387 91.6407C63.3653 91.6407 65.4975 91.5918 67.6355 91.5124C68.2979 91.482 68.9549 91.4453 69.6174 91.4146C71.1206 91.3412 72.6182 91.2436 74.1157 91.1335C74.845 91.0787 75.5686 91.0175 76.2925 90.9504C77.818 90.8158 79.321 90.6512 80.8242 90.474C81.4255 90.4006 82.0323 90.3335 82.6336 90.2541C84.6878 89.9853 86.7143 89.6736 88.6962 89.3195C89.0135 89.2584 89.3087 89.1912 89.6259 89.1301C91.2849 88.8187 92.9105 88.4765 94.4971 88.1036C95.1096 87.9631 95.7052 87.8041 96.3065 87.6514C97.5868 87.3214 98.8394 86.9733 100.064 86.6067C100.66 86.4235 101.25 86.2463 101.835 86.0569C103.132 85.6291 104.379 85.1709 105.587 84.6945C105.977 84.5418 106.394 84.4013 106.773 84.2363C108.315 83.5949 109.762 82.9044 111.121 82.1714C111.188 82.1287 111.271 82.098 111.343 82.0613V85.1038H111.343ZM122.477 42.7658C122.477 46.0281 118.752 49.9321 112.016 53.3045L110.073 54.1783C100.298 58.5709 86.5577 61.094 72.3727 61.094C70.079 61.094 67.8132 61.0146 65.5695 60.8923C65.2189 60.8679 64.8736 60.8434 64.523 60.8189C62.3853 60.6784 60.2642 60.4953 58.1988 60.2447H58.1654C44.487 58.5768 32.718 54.569 26.3101 49.1132L25.141 48.1175C23.2928 46.2724 22.2682 44.4336 22.2682 42.7658V39.2955C22.3351 39.3322 22.424 39.3627 22.4909 39.4056C23.8492 40.1389 25.2967 40.8292 26.8388 41.4705C27.2175 41.6355 27.635 41.776 28.0246 41.9287C29.2326 42.4051 30.4798 42.8633 31.777 43.2911C32.356 43.4805 32.9515 43.6577 33.5474 43.8409C34.7723 44.2075 36.0249 44.5557 37.3052 44.8856C37.9065 45.0383 38.5021 45.197 39.1145 45.3378C40.7012 45.7104 42.3268 46.0526 43.9858 46.3643C44.303 46.4255 44.5982 46.4926 44.9154 46.5537C46.8974 46.9081 48.9239 47.2196 50.9781 47.4883C51.5794 47.5677 52.1861 47.6351 52.7874 47.7082C54.2907 47.8854 55.7936 48.0504 57.3191 48.1846C58.0428 48.2517 58.7667 48.3129 59.496 48.3678C60.9935 48.4778 62.491 48.5754 63.9943 48.6488C64.6567 48.6792 65.3137 48.7159 65.9762 48.7466C68.1139 48.826 70.2461 48.8749 72.373 48.8749C74.4998 48.8749 76.6318 48.826 78.7695 48.7466C79.4319 48.7162 80.0889 48.6795 80.7514 48.6488C82.2546 48.5754 83.7521 48.4778 85.2497 48.3678C85.979 48.3129 86.7026 48.2517 87.4265 48.1846C88.952 48.0501 90.455 47.8854 91.9582 47.7082C92.5595 47.6348 93.1663 47.5677 93.7675 47.4883C95.8218 47.2196 97.8483 46.9078 99.8302 46.5537C100.147 46.4926 100.443 46.4255 100.76 46.3643C102.419 46.0529 104.044 45.7107 105.631 45.3378C106.244 45.1973 106.839 45.0383 107.44 44.8856C108.721 44.5557 109.973 44.2075 111.198 43.8409C111.794 43.6577 112.384 43.4805 112.969 43.2911C114.266 42.8633 115.513 42.4051 116.721 41.9287C117.111 41.776 117.528 41.6355 117.907 41.4705C119.449 40.8292 120.896 40.1386 122.255 39.4056C122.322 39.363 122.405 39.3322 122.477 39.2955V42.7658H122.477Z" fill="#6F91FF"/>
</svg>
