<svg width="48" height="48" viewBox="0 0 48 48" fill="none" xmlns="http://www.w3.org/2000/svg">
    <path d="M24 48C37.2548 48 48 37.2548 48 24C48 10.7452 37.2548 0 24 0C10.7452 0 0 10.7452 0 24C0 37.2548 10.7452 48 24 48Z" fill="#0098EA"/>
    <path d="M19.0791 13.1431L31.4661 19.2241C32.5141 19.7451 32.5141 21.2551 31.4661 21.7761L26.5111 24.2541L31.4661 26.7321C32.5141 27.2531 32.5141 28.7631 31.4661 29.2841L19.0791 35.3651C18.0311 35.8861 16.7781 35.1311 16.7781 33.9571V14.5511C16.7781 13.3771 18.0311 12.6221 19.0791 13.1431Z" fill="white"/>
</svg> 