<svg width="27" height="24" viewBox="0 0 27 24" fill="none" xmlns="http://www.w3.org/2000/svg">
<path fill-rule="evenodd" clip-rule="evenodd" d="M1.53473 0.434195C0.421138 1.11304 -0.083633 2.09051 0.011257 3.38364C0.084115 4.37573 0.641022 5.37196 5.96773 14.0416C9.54017 19.8561 12.0298 23.6925 12.3184 23.8275C13.4715 24.367 13.5679 24.2439 19.9261 14.1265C25.43 5.36847 26.0024 4.3694 26.0824 3.38015C26.1535 2.50127 26.0707 2.14112 25.656 1.52597C24.6059 -0.0319658 24.8696 -0.000335541 12.9344 0.000100735C2.65312 0.000537011 2.21859 0.017115 1.53473 0.434195ZM3.11689 3.19451C2.91903 3.39236 2.8008 3.72131 2.85425 3.92527C2.92754 4.20602 11.0401 16.9708 11.438 17.4319C11.4812 17.4819 11.5165 14.2179 11.5165 10.1788V2.8348H7.49644C4.05248 2.8348 3.42511 2.88628 3.11689 3.19451ZM14.5704 10.1788C14.5704 14.2179 14.604 17.4819 14.6453 17.4319C15.1057 16.8722 23.1581 4.21125 23.2309 3.93203C23.2853 3.72437 23.1679 3.39236 22.97 3.19451C22.6618 2.88628 22.0345 2.8348 18.5905 2.8348H14.5704V10.1788Z" fill="#0138EF"/>
</svg>
